<svg width="31" height="25" viewBox="0 0 31 25" fill="none" xmlns="http://www.w3.org/2000/svg">
<path d="M14.4341 4.28688L15.2778 5.61263L16.1214 4.28688C17.3953 2.28514 19.6457 1 22.2222 1C26.2533 1 29.5556 4.30228 29.5556 8.33333C29.5556 10.1158 28.7332 11.9919 27.362 13.8618C25.9984 15.7213 24.1584 17.4836 22.2834 19.0177C20.4134 20.5477 18.5383 21.8266 17.1281 22.724C16.4239 23.1721 15.838 23.5236 15.4297 23.7623C15.3766 23.7933 15.3266 23.8224 15.2797 23.8495C15.2324 23.822 15.182 23.7925 15.1286 23.761C14.7201 23.5206 14.1341 23.1666 13.4298 22.7157C12.0192 21.8127 10.1437 20.5272 8.27318 18.9925C6.39771 17.4538 4.55716 15.6888 3.19309 13.8318C1.82083 11.9637 1 10.0968 1 8.33333C1 4.30228 4.30228 1 8.33333 1C10.9099 1 13.1603 2.28514 14.4341 4.28688Z" fill="white" stroke="white" stroke-width="2"/>
</svg>
