<svg width="37" height="41" viewBox="0 0 37 41" fill="none" xmlns="http://www.w3.org/2000/svg">
<path d="M18.15 40.3333C20.7939 40.3333 23.0041 38.6514 23.833 36.3H12.467C13.2959 38.6514 15.5062 40.3333 18.15 40.3333ZM32.2667 25.3818V16.1333C32.2667 9.64572 27.8603 4.18055 21.8909 2.53697C21.3 1.04867 19.8561 0 18.15 0C16.4439 0 15 1.04867 14.4091 2.53697C8.43975 4.18257 4.03333 9.64572 4.03333 16.1333V25.3818L0.590883 28.8242C0.21175 29.2013 0 29.7136 0 30.25V32.2667C0 33.3819 0.90145 34.2833 2.01667 34.2833H34.2833C35.3986 34.2833 36.3 33.3819 36.3 32.2667V30.25C36.3 29.7136 36.0883 29.2013 35.7091 28.8242L32.2667 25.3818Z" fill="#4047CF"/>
</svg>
