<svg width="23" height="17" viewBox="0 0 23 17" fill="none" xmlns="http://www.w3.org/2000/svg">
<path d="M22.4547 7.995C21.5726 5.71324 20.0412 3.73996 18.0498 2.31906C16.0584 0.898167 13.6943 0.0919297 11.2497 0C8.80507 0.0919297 6.44097 0.898167 4.44958 2.31906C2.45819 3.73996 0.926802 5.71324 0.0446809 7.995C-0.0148936 8.15978 -0.0148936 8.34022 0.0446809 8.505C2.60045 10.468 5.53227 11.7262 8.49276 12.2706C10.2243 12.589 11.9657 12.6632 13.6474 12.4915C14.3498 12.4198 15.0418 12.3051 15.7183 12.1474C18.2764 11.5511 20.6132 10.3394 22.4547 8.505C22.5143 8.34022 22.5143 8.15978 22.4547 7.995Z" fill="white"/>
<path d="M0.0446809 8.505C0.926802 10.7868 2.45819 12.76 4.44958 14.1809C6.44097 15.6018 8.80507 16.4081 11.2497 16.5C13.6943 16.4081 16.0584 15.6018 18.0498 14.1809C20.0412 12.76 21.5726 10.7868 22.4547 8.505C20.3992 10.5525 18.2254 11.7909 16.0576 12.4434C14.7551 12.8355 13.4547 13.016 12.1834 13.0334C11.3308 13.0451 10.4913 12.9835 9.67303 12.863C5.60588 12.2643 2.06343 10.2138 0.0446809 8.505Z" fill="white"/>
</svg>
